<svg xmlns="http://www.w3.org/2000/svg" xmlns:xlink="http://www.w3.org/1999/xlink" width="500" zoomAndPan="magnify" viewBox="0 0 375 374.999991" height="500" preserveAspectRatio="xMidYMid meet" version="1.0"><defs><g/><clipPath id="348ebc9142"><path d="M 187.5 0 C 83.945312 0 0 83.945312 0 187.5 C 0 291.054688 83.945312 375 187.5 375 C 291.054688 375 375 291.054688 375 187.5 C 375 83.945312 291.054688 0 187.5 0 Z M 187.5 0 " clip-rule="nonzero"/></clipPath><clipPath id="81af224c99"><path d="M 233 181 L 257 181 L 257 214 L 233 214 Z M 233 181 " clip-rule="nonzero"/></clipPath><clipPath id="f80efd12d8"><path d="M 255.808594 214.90625 L 230.636719 211.707031 L 234.472656 181.503906 L 259.644531 184.699219 Z M 255.808594 214.90625 " clip-rule="nonzero"/></clipPath><clipPath id="635bb71e32"><path d="M 230.761719 211.722656 L 255.933594 214.921875 L 259.769531 184.714844 L 234.597656 181.519531 Z M 230.761719 211.722656 " clip-rule="nonzero"/></clipPath></defs><g clip-path="url(#348ebc9142)"><rect x="-37.5" width="450" fill="#ffffff" y="-37.499999" height="449.999989" fill-opacity="1"/></g><g fill="#000000" fill-opacity="1"><g transform="translate(165.939502, 207.289872)"><g><path d="M 16.953125 -49.15625 L 16.953125 -10.828125 L 32.265625 -10.828125 L 32.265625 0 L 4.171875 0 L 4.171875 -49.15625 Z M 16.953125 -49.15625 "/></g></g></g><g fill="#000000" fill-opacity="1"><g transform="translate(191.290905, 207.289872)"><g><path d="M 16.953125 -49.15625 L 16.953125 0 L 4.171875 0 L 4.171875 -49.15625 Z M 16.953125 -49.15625 "/></g></g></g><g fill="#000000" fill-opacity="1"><g transform="translate(205.497163, 207.289872)"><g><path d="M 56.0625 -25.484375 C 56.0625 -20.273438 54.882812 -15.59375 52.53125 -11.4375 C 50.1875 -7.289062 46.925781 -4.078125 42.75 -1.796875 C 38.582031 0.484375 34.085938 1.625 29.265625 1.625 C 23.921875 1.625 19.140625 0.460938 14.921875 -1.859375 C 10.710938 -4.179688 7.453125 -7.382812 5.140625 -11.46875 C 2.835938 -15.550781 1.6875 -20.03125 1.6875 -24.90625 C 1.6875 -29.375 2.738281 -33.539062 4.84375 -37.40625 C 6.957031 -41.28125 10.1875 -44.476562 14.53125 -47 C 18.882812 -49.519531 23.664062 -50.78125 28.875 -50.78125 C 33.65625 -50.78125 38.140625 -49.679688 42.328125 -47.484375 C 46.523438 -45.296875 49.863281 -42.253906 52.34375 -38.359375 C 54.820312 -34.472656 56.0625 -30.179688 56.0625 -25.484375 Z M 28.875 -10.75 C 32.832031 -10.75 36.132812 -12.179688 38.78125 -15.046875 C 41.4375 -17.921875 42.765625 -21.378906 42.765625 -25.421875 C 42.765625 -28.804688 41.394531 -31.8125 38.65625 -34.4375 C 35.914062 -37.070312 32.632812 -38.390625 28.8125 -38.390625 C 25.207031 -38.390625 22.023438 -37.117188 19.265625 -34.578125 C 16.503906 -32.035156 15.082031 -28.984375 15 -25.421875 C 15 -21.203125 16.34375 -17.703125 19.03125 -14.921875 C 21.726562 -12.140625 25.007812 -10.75 28.875 -10.75 Z M 28.875 -10.75 "/></g></g></g><g fill="#000000" fill-opacity="1"><g transform="translate(256.397681, 207.289872)"><g><path d="M 16.6875 -49.15625 L 16.6875 -22.8125 C 16.6875 -19.382812 16.96875 -16.84375 17.53125 -15.1875 C 18.101562 -13.539062 19.003906 -12.25 20.234375 -11.3125 C 21.472656 -10.375 23.179688 -9.90625 25.359375 -9.90625 C 28.265625 -9.90625 30.4375 -10.828125 31.875 -12.671875 C 33.3125 -14.523438 34.03125 -17.882812 34.03125 -22.75 L 34.03125 -49.15625 L 46.796875 -49.15625 L 46.796875 -20.921875 C 46.796875 -15.316406 46.078125 -11.078125 44.640625 -8.203125 C 43.210938 -5.335938 40.847656 -3.035156 37.546875 -1.296875 C 34.242188 0.429688 30.179688 1.296875 25.359375 1.296875 C 20.710938 1.296875 16.734375 0.492188 13.421875 -1.109375 C 10.117188 -2.710938 7.707031 -4.984375 6.1875 -7.921875 C 4.664062 -10.859375 3.90625 -15.191406 3.90625 -20.921875 L 3.90625 -49.15625 Z M 16.6875 -49.15625 "/></g></g></g><g fill="#000000" fill-opacity="1"><g transform="translate(300.193984, 207.289872)"><g><path d="M 16.953125 -49.15625 L 16.953125 0 L 4.171875 0 L 4.171875 -49.15625 Z M 16.953125 -49.15625 "/></g></g></g><g fill="#000000" fill-opacity="1"><g transform="translate(314.400246, 207.289872)"><g><path d="M 22.421875 -49.15625 C 26.859375 -49.15625 30.988281 -48.066406 34.8125 -45.890625 C 38.632812 -43.710938 41.664062 -40.710938 43.90625 -36.890625 C 46.144531 -33.066406 47.265625 -28.960938 47.265625 -24.578125 C 47.265625 -20.140625 46.125 -16 43.84375 -12.15625 C 41.5625 -8.3125 38.492188 -5.320312 34.640625 -3.1875 C 30.796875 -1.0625 26.679688 0 22.296875 0 L 4.171875 0 L 4.171875 -49.15625 Z M 16.953125 -10.828125 L 18.84375 -10.828125 C 21.664062 -10.828125 23.898438 -11.128906 25.546875 -11.734375 C 31.160156 -13.691406 33.96875 -17.972656 33.96875 -24.578125 C 33.96875 -28.878906 32.679688 -32.242188 30.109375 -34.671875 C 27.546875 -37.109375 24.222656 -38.328125 20.140625 -38.328125 L 16.953125 -38.328125 Z M 16.953125 -10.828125 "/></g></g></g><g clip-path="url(#81af224c99)"><g clip-path="url(#f80efd12d8)"><g clip-path="url(#635bb71e32)"><path fill="#000000" d="M 254.03125 203.40625 C 250.5625 199.535156 245.257812 197.855469 241.320312 194.457031 C 238.261719 191.816406 236.082031 188.027344 235.878906 183.988281 C 235.839844 183.222656 235.878906 182.445312 235.996094 181.683594 C 234.453125 184.828125 233.746094 188.457031 233.644531 191.984375 C 233.5 197.050781 234.507812 202.285156 237.382812 206.460938 C 240.257812 210.632812 245.203125 213.5625 250.257812 213.175781 C 252.582031 213 255.09375 211.90625 255.90625 209.71875 C 256.714844 207.554688 255.574219 205.125 254.03125 203.40625 Z M 254.03125 203.40625 " fill-opacity="1" fill-rule="nonzero"/></g></g></g><g fill="#000000" fill-opacity="1"><g transform="translate(11.56833, 207.289872)"><g><path d="M 34.28125 -49.15625 L 34.28125 -38.328125 L 23.734375 -38.328125 L 23.734375 0 L 10.953125 0 L 10.953125 -38.328125 L 0.390625 -38.328125 L 0.390625 -49.15625 Z M 34.28125 -49.15625 "/></g></g></g><g fill="#000000" fill-opacity="1"><g transform="translate(39.396428, 207.289872)"><g><path d="M 32.140625 -49.15625 L 32.140625 -38.328125 L 16.953125 -38.328125 L 16.953125 -30.109375 L 31.359375 -30.109375 L 31.359375 -19.296875 L 16.953125 -19.296875 L 16.953125 -10.828125 L 32.140625 -10.828125 L 32.140625 0 L 4.171875 0 L 4.171875 -49.15625 Z M 32.140625 -49.15625 "/></g></g></g><g fill="#000000" fill-opacity="1"><g transform="translate(68.332525, 207.289872)"><g><path d="M 39.3125 -32.65625 C 38.050781 -34.394531 36.421875 -35.726562 34.421875 -36.65625 C 32.421875 -37.59375 30.3125 -38.0625 28.09375 -38.0625 C 24.3125 -38.0625 21.179688 -36.78125 18.703125 -34.21875 C 16.234375 -31.65625 15 -28.394531 15 -24.4375 C 15 -20.53125 16.222656 -17.328125 18.671875 -14.828125 C 21.128906 -12.328125 24.335938 -11.078125 28.296875 -11.078125 C 30.378906 -11.078125 32.382812 -11.53125 34.3125 -12.4375 C 36.25 -13.351562 37.914062 -14.640625 39.3125 -16.296875 L 39.3125 -0.984375 C 37.050781 -0.285156 35.03125 0.265625 33.25 0.671875 C 31.46875 1.085938 29.726562 1.296875 28.03125 1.296875 C 21.164062 1.296875 15.054688 -1.078125 9.703125 -5.828125 C 4.359375 -10.585938 1.6875 -16.816406 1.6875 -24.515625 C 1.6875 -29.242188 2.859375 -33.609375 5.203125 -37.609375 C 7.554688 -41.609375 10.753906 -44.75 14.796875 -47.03125 C 18.835938 -49.3125 23.117188 -50.453125 27.640625 -50.453125 C 31.285156 -50.453125 35.175781 -49.628906 39.3125 -47.984375 Z M 39.3125 -32.65625 "/></g></g></g><g fill="#000000" fill-opacity="1"><g transform="translate(104.438022, 207.289872)"><g><path d="M 16.953125 -49.15625 L 16.953125 -30.1875 L 35.390625 -30.1875 L 35.390625 -49.15625 L 48.171875 -49.15625 L 48.171875 0 L 35.390625 0 L 35.390625 -20.140625 L 16.953125 -20.140625 L 16.953125 0 L 4.171875 0 L 4.171875 -49.15625 Z M 16.953125 -49.15625 "/></g></g></g></svg>