<svg xmlns="http://www.w3.org/2000/svg" xmlns:xlink="http://www.w3.org/1999/xlink" width="1200"
    zoomAndPan="magnify" viewBox="0 0 900 200" height="300" preserveAspectRatio="xMidYMid meet"
    version="1.0">
    <defs>
        <g />
        <clipPath id="da34b69830">
            <path d="M 567 97 L 626 97 L 626 179 L 567 179 Z M 567 97 " clip-rule="nonzero" />
        </clipPath>
        <clipPath id="255d55c7ec">
            <path
                d="M 624.167969 182.375 L 559.988281 174.226562 L 569.769531 97.210938 L 633.949219 105.363281 Z M 624.167969 182.375 "
                clip-rule="nonzero" />
        </clipPath>
        <clipPath id="b9adcf339c">
            <path
                d="M 560.308594 174.265625 L 624.488281 182.417969 L 634.269531 105.402344 L 570.089844 97.253906 Z M 560.308594 174.265625 "
                clip-rule="nonzero" />
        </clipPath>
    </defs>
    <g fill="#ffffff" fill-opacity="1">
        <g transform="translate(395.026164, 162.961444)">
            <g>
                <path
                    d="M 43.21875 -125.328125 L 43.21875 -27.59375 L 82.28125 -27.59375 L 82.28125 0 L 10.640625 0 L 10.640625 -125.328125 Z M 43.21875 -125.328125 " />
            </g>
        </g>
    </g>
    <g fill="#ffffff" fill-opacity="1">
        <g transform="translate(459.665821, 162.961444)">
            <g>
                <path
                    d="M 43.21875 -125.328125 L 43.21875 0 L 10.640625 0 L 10.640625 -125.328125 Z M 43.21875 -125.328125 " />
            </g>
        </g>
    </g>
    <g fill="#ffffff" fill-opacity="1">
        <g transform="translate(495.888182, 162.961444)">
            <g>
                <path
                    d="M 142.953125 -64.984375 C 142.953125 -51.691406 139.957031 -39.753906 133.96875 -29.171875 C 127.988281 -18.585938 119.675781 -10.382812 109.03125 -4.5625 C 98.394531 1.25 86.925781 4.15625 74.625 4.15625 C 61 4.15625 48.8125 1.191406 38.0625 -4.734375 C 27.3125 -10.660156 19 -18.832031 13.125 -29.25 C 7.257812 -39.664062 4.328125 -51.082031 4.328125 -63.5 C 4.328125 -74.90625 7.007812 -85.539062 12.375 -95.40625 C 17.75 -105.269531 25.976562 -113.414062 37.0625 -119.84375 C 48.144531 -126.269531 60.335938 -129.484375 73.640625 -129.484375 C 85.828125 -129.484375 97.265625 -126.6875 107.953125 -121.09375 C 118.648438 -115.5 127.15625 -107.738281 133.46875 -97.8125 C 139.789062 -87.894531 142.953125 -76.953125 142.953125 -64.984375 Z M 73.640625 -27.421875 C 83.722656 -27.421875 92.144531 -31.078125 98.90625 -38.390625 C 105.664062 -45.703125 109.046875 -54.515625 109.046875 -64.828125 C 109.046875 -73.472656 105.550781 -81.144531 98.5625 -87.84375 C 91.582031 -94.550781 83.21875 -97.90625 73.46875 -97.90625 C 64.269531 -97.90625 56.148438 -94.660156 49.109375 -88.171875 C 42.078125 -81.691406 38.453125 -73.910156 38.234375 -64.828125 C 38.234375 -54.078125 41.664062 -45.15625 48.53125 -38.0625 C 55.40625 -30.96875 63.773438 -27.421875 73.640625 -27.421875 Z M 73.640625 -27.421875 " />
            </g>
        </g>
    </g>
    <g fill="#ffffff" fill-opacity="1">
        <g transform="translate(625.671616, 162.961444)">
            <g>
                <path
                    d="M 42.546875 -125.328125 L 42.546875 -58.171875 C 42.546875 -49.421875 43.265625 -42.9375 44.703125 -38.71875 C 46.148438 -34.507812 48.453125 -31.210938 51.609375 -28.828125 C 54.765625 -26.453125 59.113281 -25.265625 64.65625 -25.265625 C 72.082031 -25.265625 77.625 -27.617188 81.28125 -32.328125 C 84.9375 -37.035156 86.765625 -45.597656 86.765625 -58.015625 L 86.765625 -125.328125 L 119.34375 -125.328125 L 119.34375 -53.359375 C 119.34375 -39.054688 117.515625 -28.25 113.859375 -20.9375 C 110.203125 -13.625 104.160156 -7.75 95.734375 -3.3125 C 87.316406 1.113281 76.957031 3.328125 64.65625 3.328125 C 52.800781 3.328125 42.660156 1.28125 34.234375 -2.8125 C 25.816406 -6.914062 19.664062 -12.707031 15.78125 -20.1875 C 11.90625 -27.675781 9.96875 -38.734375 9.96875 -53.359375 L 9.96875 -125.328125 Z M 42.546875 -125.328125 " />
            </g>
        </g>
    </g>
    <g fill="#ffffff" fill-opacity="1">
        <g transform="translate(737.3411, 162.961444)">
            <g>
                <path
                    d="M 43.21875 -125.328125 L 43.21875 0 L 10.640625 0 L 10.640625 -125.328125 Z M 43.21875 -125.328125 " />
            </g>
        </g>
    </g>
    <g fill="#ffffff" fill-opacity="1">
        <g transform="translate(773.563471, 162.961444)">
            <g>
                <path
                    d="M 57.171875 -125.328125 C 68.484375 -125.328125 79.015625 -122.554688 88.765625 -117.015625 C 98.515625 -111.472656 106.242188 -103.828125 111.953125 -94.078125 C 117.660156 -84.328125 120.515625 -73.859375 120.515625 -62.671875 C 120.515625 -51.359375 117.601562 -40.800781 111.78125 -31 C 105.96875 -21.195312 98.15625 -13.578125 88.34375 -8.140625 C 78.539062 -2.710938 68.039062 0 56.84375 0 L 10.640625 0 L 10.640625 -125.328125 Z M 43.21875 -27.59375 L 48.03125 -27.59375 C 55.238281 -27.59375 60.945312 -28.367188 65.15625 -29.921875 C 79.445312 -34.910156 86.59375 -45.828125 86.59375 -62.671875 C 86.59375 -73.640625 83.320312 -82.222656 76.78125 -88.421875 C 70.25 -94.628906 61.773438 -97.734375 51.359375 -97.734375 L 43.21875 -97.734375 Z M 43.21875 -27.59375 " />
            </g>
        </g>
    </g>
    <g clip-path="url(#da34b69830)">
        <g clip-path="url(#255d55c7ec)">
            <g clip-path="url(#b9adcf339c)">
                <path fill="#ffffff"
                    d="M 619.640625 153.058594 C 610.792969 143.1875 597.261719 138.90625 587.230469 130.242188 C 579.429688 123.507812 573.871094 113.84375 573.351562 103.550781 C 573.253906 101.59375 573.355469 99.617188 573.648438 97.671875 C 569.722656 105.691406 567.914062 114.945312 567.65625 123.9375 C 567.285156 136.851562 569.859375 150.203125 577.1875 160.84375 C 584.515625 171.488281 597.128906 178.953125 610.015625 177.972656 C 615.945312 177.523438 622.34375 174.734375 624.417969 169.15625 C 626.476562 163.636719 623.570312 157.441406 619.640625 153.054688 Z M 619.640625 153.058594 "
                    fill-opacity="1" fill-rule="nonzero" />
            </g>
        </g>
    </g>
    <g fill="#ffffff" fill-opacity="1">
        <g transform="translate(1.41876, 162.961444)">
            <g>
                <path
                    d="M 87.4375 -125.328125 L 87.4375 -97.734375 L 60.5 -97.734375 L 60.5 0 L 27.921875 0 L 27.921875 -97.734375 L 1 -97.734375 L 1 -125.328125 Z M 87.4375 -125.328125 " />
            </g>
        </g>
    </g>
    <g fill="#ffffff" fill-opacity="1">
        <g transform="translate(72.373363, 162.961444)">
            <g>
                <path
                    d="M 81.953125 -125.328125 L 81.953125 -97.734375 L 43.21875 -97.734375 L 43.21875 -76.796875 L 79.953125 -76.796875 L 79.953125 -49.203125 L 43.21875 -49.203125 L 43.21875 -27.59375 L 81.953125 -27.59375 L 81.953125 0 L 10.640625 0 L 10.640625 -125.328125 Z M 81.953125 -125.328125 " />
            </g>
        </g>
    </g>
    <g fill="#ffffff" fill-opacity="1">
        <g transform="translate(146.153083, 162.961444)">
            <g>
                <path
                    d="M 100.234375 -83.28125 C 97.015625 -87.707031 92.859375 -91.113281 87.765625 -93.5 C 82.671875 -95.882812 77.296875 -97.078125 71.640625 -97.078125 C 61.992188 -97.078125 54.015625 -93.804688 47.703125 -87.265625 C 41.390625 -80.722656 38.234375 -72.410156 38.234375 -62.328125 C 38.234375 -52.359375 41.363281 -44.1875 47.625 -37.8125 C 53.882812 -31.4375 62.054688 -28.25 72.140625 -28.25 C 77.460938 -28.25 82.585938 -29.410156 87.515625 -31.734375 C 92.441406 -34.066406 96.679688 -37.34375 100.234375 -41.5625 L 100.234375 -2.5 C 94.472656 -0.71875 89.316406 0.695312 84.765625 1.75 C 80.222656 2.800781 75.789062 3.328125 71.46875 3.328125 C 53.96875 3.328125 38.398438 -2.738281 24.765625 -14.875 C 11.140625 -27.007812 4.328125 -42.882812 4.328125 -62.5 C 4.328125 -74.570312 7.316406 -85.707031 13.296875 -95.90625 C 19.273438 -106.101562 27.414062 -114.109375 37.71875 -119.921875 C 48.03125 -125.742188 58.953125 -128.65625 70.484375 -128.65625 C 79.785156 -128.65625 89.703125 -126.550781 100.234375 -122.34375 Z M 100.234375 -83.28125 " />
            </g>
        </g>
    </g>
    <g fill="#ffffff" fill-opacity="1">
        <g transform="translate(238.212961, 162.961444)">
            <g>
                <path
                    d="M 43.21875 -125.328125 L 43.21875 -76.953125 L 90.25 -76.953125 L 90.25 -125.328125 L 122.828125 -125.328125 L 122.828125 0 L 90.25 0 L 90.25 -51.359375 L 43.21875 -51.359375 L 43.21875 0 L 10.640625 0 L 10.640625 -125.328125 Z M 43.21875 -125.328125 " />
            </g>
        </g>
    </g>
</svg>