<svg xmlns="http://www.w3.org/2000/svg" xmlns:xlink="http://www.w3.org/1999/xlink" width="1200" zoomAndPan="magnify" viewBox="0 0 900 225" height="300" preserveAspectRatio="xMidYMid meet" version="1.0"><defs><g/></defs><g fill="#ffffff" fill-opacity="1"><g transform="translate(215.83417, 100.258042)"><g><path d="M 29.765625 -25.546875 L 29.765625 -27.8125 L 19.234375 -27.8125 L 19.234375 -25.546875 Z M 29.765625 -19.75 L 29.765625 -22.015625 L 19.234375 -22.015625 L 19.234375 -19.75 Z M 34.390625 -31.609375 L 34.390625 -15.9375 L 14.890625 -15.9375 L 14.890625 -31.609375 Z M 13.4375 -28.828125 L 10.765625 -25.03125 C 10.273438 -25.5 9.617188 -25.992188 8.796875 -26.515625 C 7.972656 -27.035156 7.101562 -27.550781 6.1875 -28.0625 C 5.269531 -28.570312 4.410156 -29.023438 3.609375 -29.421875 L 6.109375 -32.703125 C 6.921875 -32.390625 7.789062 -32.003906 8.71875 -31.546875 C 9.644531 -31.097656 10.53125 -30.632812 11.375 -30.15625 C 12.226562 -29.6875 12.914062 -29.242188 13.4375 -28.828125 Z M 11 -18.296875 L 8.5 -14.53125 C 7.976562 -14.976562 7.304688 -15.453125 6.484375 -15.953125 C 5.660156 -16.460938 4.785156 -16.96875 3.859375 -17.46875 C 2.929688 -17.96875 2.050781 -18.398438 1.21875 -18.765625 L 3.5625 -22.125 C 4.375 -21.8125 5.25 -21.429688 6.1875 -20.984375 C 7.125 -20.546875 8.023438 -20.09375 8.890625 -19.625 C 9.753906 -19.15625 10.457031 -18.710938 11 -18.296875 Z M 8.546875 -12.5 L 12.03125 -9.671875 C 11.113281 -7.640625 10.125 -5.550781 9.0625 -3.40625 C 8.007812 -1.269531 6.960938 0.738281 5.921875 2.625 L 1.921875 -0.15625 C 2.578125 -1.144531 3.28125 -2.3125 4.03125 -3.65625 C 4.789062 -5.007812 5.5625 -6.445312 6.34375 -7.96875 C 7.125 -9.5 7.859375 -11.007812 8.546875 -12.5 Z M 17.78125 -9.671875 L 17.78125 -1.765625 L 19.984375 -1.765625 L 19.984375 -9.671875 Z M 25.625 -9.671875 L 23.421875 -9.671875 L 23.421875 -1.765625 L 25.625 -1.765625 Z M 31.34375 -9.671875 L 29.0625 -9.671875 L 29.0625 -1.765625 L 31.34375 -1.765625 Z M 35.71875 -1.765625 L 37.921875 -1.765625 L 37.921875 2.265625 L 10.6875 2.265625 L 10.6875 -1.765625 L 13.625 -1.765625 L 13.625 -13.59375 L 35.71875 -13.59375 Z M 35.71875 -1.765625 "/></g></g></g><g fill="#ffffff" fill-opacity="1"><g transform="translate(255.008527, 100.258042)"><g><path d="M 12.34375 -31.421875 L 18.09375 -30.828125 C 17.988281 -30.328125 17.867188 -29.789062 17.734375 -29.21875 C 17.609375 -28.644531 17.492188 -28.109375 17.390625 -27.609375 C 17.285156 -27.035156 17.160156 -26.398438 17.015625 -25.703125 C 16.878906 -25.015625 16.742188 -24.320312 16.609375 -23.625 C 17.265625 -23.675781 17.867188 -23.710938 18.421875 -23.734375 C 18.984375 -23.765625 19.460938 -23.78125 19.859375 -23.78125 C 21.242188 -23.78125 22.457031 -23.550781 23.5 -23.09375 C 24.539062 -22.632812 25.363281 -21.863281 25.96875 -20.78125 C 26.570312 -19.695312 26.875 -18.226562 26.875 -16.375 C 26.875 -14.863281 26.800781 -13.222656 26.65625 -11.453125 C 26.507812 -9.691406 26.28125 -7.992188 25.96875 -6.359375 C 25.65625 -4.734375 25.222656 -3.359375 24.671875 -2.234375 C 24.023438 -0.878906 23.164062 0.0507812 22.09375 0.5625 C 21.019531 1.070312 19.753906 1.328125 18.296875 1.328125 C 17.566406 1.328125 16.773438 1.273438 15.921875 1.171875 C 15.078125 1.066406 14.328125 0.9375 13.671875 0.78125 L 12.8125 -4.34375 C 13.5625 -4.132812 14.414062 -3.945312 15.375 -3.78125 C 16.332031 -3.613281 17.054688 -3.53125 17.546875 -3.53125 C 18.203125 -3.53125 18.773438 -3.644531 19.265625 -3.875 C 19.765625 -4.113281 20.160156 -4.554688 20.453125 -5.203125 C 20.816406 -5.941406 21.113281 -6.894531 21.34375 -8.0625 C 21.582031 -9.238281 21.757812 -10.503906 21.875 -11.859375 C 21.988281 -13.222656 22.046875 -14.546875 22.046875 -15.828125 C 22.046875 -16.867188 21.898438 -17.632812 21.609375 -18.125 C 21.328125 -18.625 20.90625 -18.953125 20.34375 -19.109375 C 19.78125 -19.265625 19.082031 -19.34375 18.25 -19.34375 C 17.9375 -19.34375 17.550781 -19.328125 17.09375 -19.296875 C 16.632812 -19.273438 16.132812 -19.238281 15.59375 -19.1875 C 15.226562 -17.726562 14.773438 -16.097656 14.234375 -14.296875 C 13.703125 -12.492188 13.101562 -10.648438 12.4375 -8.765625 C 11.769531 -6.890625 11.035156 -5.0625 10.234375 -3.28125 C 9.441406 -1.507812 8.601562 0.09375 7.71875 1.53125 L 2.625 -0.515625 C 3.5625 -1.785156 4.4375 -3.191406 5.25 -4.734375 C 6.0625 -6.273438 6.789062 -7.863281 7.4375 -9.5 C 8.09375 -11.132812 8.675781 -12.734375 9.1875 -14.296875 C 9.695312 -15.859375 10.117188 -17.304688 10.453125 -18.640625 C 8.992188 -18.484375 7.882812 -18.34375 7.125 -18.21875 C 6.582031 -18.164062 5.878906 -18.078125 5.015625 -17.953125 C 4.148438 -17.835938 3.421875 -17.726562 2.828125 -17.625 L 2.390625 -22.875 C 3.097656 -22.820312 3.78125 -22.800781 4.4375 -22.8125 C 5.101562 -22.832031 5.789062 -22.851562 6.5 -22.875 C 7.101562 -22.90625 7.847656 -22.945312 8.734375 -23 C 9.617188 -23.050781 10.546875 -23.113281 11.515625 -23.1875 C 11.804688 -24.675781 12.019531 -26.117188 12.15625 -27.515625 C 12.300781 -28.910156 12.363281 -30.210938 12.34375 -31.421875 Z M 26.796875 -25.234375 L 31.5 -27.1875 C 32.09375 -26.351562 32.71875 -25.3125 33.375 -24.0625 C 34.03125 -22.820312 34.675781 -21.503906 35.3125 -20.109375 C 35.945312 -18.710938 36.523438 -17.367188 37.046875 -16.078125 C 37.578125 -14.785156 37.984375 -13.679688 38.265625 -12.765625 L 33.375 -10.453125 C 33.113281 -11.523438 32.757812 -12.734375 32.3125 -14.078125 C 31.875 -15.421875 31.351562 -16.785156 30.75 -18.171875 C 30.144531 -19.554688 29.507812 -20.863281 28.84375 -22.09375 C 28.175781 -23.320312 27.492188 -24.367188 26.796875 -25.234375 Z M 26.796875 -25.234375 "/></g></g></g><g fill="#ffffff" fill-opacity="1"><g transform="translate(294.182883, 100.258042)"><g><path d="M 10.265625 -27.890625 C 10.179688 -27.441406 10.097656 -26.914062 10.015625 -26.3125 C 9.941406 -25.71875 9.882812 -25.140625 9.84375 -24.578125 C 9.8125 -24.015625 9.796875 -23.550781 9.796875 -23.1875 C 9.765625 -21.9375 9.769531 -20.597656 9.8125 -19.171875 C 9.851562 -17.753906 9.925781 -16.351562 10.03125 -14.96875 C 10.3125 -12.164062 10.769531 -9.894531 11.40625 -8.15625 C 12.050781 -6.425781 12.976562 -5.5625 14.1875 -5.5625 C 14.65625 -5.5625 15.085938 -5.804688 15.484375 -6.296875 C 15.890625 -6.796875 16.273438 -7.4375 16.640625 -8.21875 C 17.015625 -9.007812 17.335938 -9.84375 17.609375 -10.71875 C 17.878906 -11.59375 18.109375 -12.40625 18.296875 -13.15625 L 22.203125 -8.46875 C 21.347656 -6.21875 20.492188 -4.425781 19.640625 -3.09375 C 18.796875 -1.757812 17.914062 -0.796875 17 -0.203125 C 16.082031 0.378906 15.101562 0.671875 14.0625 0.671875 C 12.65625 0.671875 11.328125 0.207031 10.078125 -0.71875 C 8.835938 -1.644531 7.773438 -3.148438 6.890625 -5.234375 C 6.003906 -7.328125 5.378906 -10.113281 5.015625 -13.59375 C 4.910156 -14.789062 4.820312 -16.039062 4.75 -17.34375 C 4.6875 -18.65625 4.640625 -19.90625 4.609375 -21.09375 C 4.585938 -22.28125 4.578125 -23.265625 4.578125 -24.046875 C 4.578125 -24.597656 4.5625 -25.242188 4.53125 -25.984375 C 4.507812 -26.734375 4.4375 -27.394531 4.3125 -27.96875 Z M 29.65625 -27.0625 C 30.570312 -25.945312 31.429688 -24.570312 32.234375 -22.9375 C 33.046875 -21.300781 33.769531 -19.554688 34.40625 -17.703125 C 35.050781 -15.847656 35.578125 -14.015625 35.984375 -12.203125 C 36.390625 -10.390625 36.644531 -8.738281 36.75 -7.25 L 31.609375 -5.28125 C 31.453125 -6.851562 31.203125 -8.550781 30.859375 -10.375 C 30.523438 -12.207031 30.078125 -14.050781 29.515625 -15.90625 C 28.953125 -17.757812 28.28125 -19.507812 27.5 -21.15625 C 26.71875 -22.800781 25.789062 -24.222656 24.71875 -25.421875 Z M 29.65625 -27.0625 "/></g></g></g><g fill="#ffffff" fill-opacity="1"><g transform="translate(333.35724, 100.258042)"><g><path d="M 3.5625 0 L 3.5625 -28.984375 L 9.359375 -28.984375 L 9.359375 0 Z M 3.5625 0 "/></g></g></g><g fill="#ffffff" fill-opacity="1"><g transform="translate(346.284787, 100.258042)"><g><path d="M 9.328125 0 L 9.328125 -24.171875 L 1.171875 -24.171875 L 1.171875 -28.984375 L 23.34375 -28.984375 L 23.34375 -24.171875 L 15.125 -24.171875 L 15.125 0 Z M 9.328125 0 "/></g></g></g><g fill="#ffffff" fill-opacity="1"><g transform="translate(370.76875, 100.258042)"><g><path d="M 9.5625 -2.3125 C 12.75 -3.613281 15.414062 -5.191406 17.5625 -7.046875 C 19.71875 -8.898438 21.515625 -10.859375 22.953125 -12.921875 C 24.410156 -15.015625 25.46875 -17.109375 26.125 -19.203125 C 26.78125 -21.304688 27.265625 -23.15625 27.578125 -24.75 C 27.785156 -25.664062 27.925781 -26.5625 28 -27.4375 C 28.082031 -28.3125 28.113281 -29 28.09375 -29.5 L 34.4375 -28.59375 C 34.195312 -27.863281 33.972656 -27.066406 33.765625 -26.203125 C 33.554688 -25.335938 33.382812 -24.617188 33.25 -24.046875 C 32.757812 -21.753906 32.085938 -19.4375 31.234375 -17.09375 C 30.390625 -14.757812 29.25 -12.492188 27.8125 -10.296875 C 26.300781 -7.921875 24.429688 -5.703125 22.203125 -3.640625 C 19.984375 -1.578125 17.320312 0.207031 14.21875 1.71875 Z M 3.71875 -26.71875 L 8.734375 -29.296875 C 9.234375 -28.617188 9.796875 -27.769531 10.421875 -26.75 C 11.046875 -25.738281 11.675781 -24.675781 12.3125 -23.5625 C 12.957031 -22.445312 13.5625 -21.378906 14.125 -20.359375 C 14.6875 -19.347656 15.148438 -18.503906 15.515625 -17.828125 L 10.34375 -14.890625 C 9.820312 -16.054688 9.175781 -17.363281 8.40625 -18.8125 C 7.632812 -20.269531 6.835938 -21.703125 6.015625 -23.109375 C 5.191406 -24.523438 4.425781 -25.726562 3.71875 -26.71875 Z M 3.71875 -26.71875 "/></g></g></g><g fill="#ffffff" fill-opacity="1"><g transform="translate(409.943107, 100.258042)"><g><path d="M 7.640625 -30.046875 L 13.390625 -30.046875 C 13.367188 -29.628906 13.34375 -29.1875 13.3125 -28.71875 C 13.289062 -28.25 13.28125 -27.695312 13.28125 -27.0625 L 13.28125 -13.828125 C 13.28125 -13.328125 13.289062 -12.742188 13.3125 -12.078125 C 13.34375 -11.410156 13.367188 -10.859375 13.390625 -10.421875 L 7.59375 -10.421875 C 7.625 -10.785156 7.664062 -11.304688 7.71875 -11.984375 C 7.769531 -12.660156 7.796875 -13.285156 7.796875 -13.859375 L 7.796875 -27.0625 C 7.796875 -27.425781 7.78125 -27.910156 7.75 -28.515625 C 7.726562 -29.117188 7.691406 -29.628906 7.640625 -30.046875 Z M 25.65625 -30.390625 L 31.453125 -30.390625 C 31.429688 -29.847656 31.398438 -29.253906 31.359375 -28.609375 C 31.316406 -27.972656 31.296875 -27.265625 31.296875 -26.484375 L 31.296875 -18.71875 C 31.296875 -15.925781 31.117188 -13.597656 30.765625 -11.734375 C 30.410156 -9.867188 29.894531 -8.296875 29.21875 -7.015625 C 28.539062 -5.734375 27.71875 -4.554688 26.75 -3.484375 C 25.894531 -2.546875 24.90625 -1.703125 23.78125 -0.953125 C 22.65625 -0.210938 21.523438 0.414062 20.390625 0.9375 C 19.253906 1.457031 18.203125 1.875 17.234375 2.1875 L 13.125 -2.109375 C 15.082031 -2.554688 16.867188 -3.171875 18.484375 -3.953125 C 20.109375 -4.734375 21.519531 -5.765625 22.71875 -7.046875 C 23.601562 -8.046875 24.273438 -9.070312 24.734375 -10.125 C 25.191406 -11.1875 25.5 -12.425781 25.65625 -13.84375 C 25.8125 -15.269531 25.890625 -17 25.890625 -19.03125 L 25.890625 -26.484375 C 25.890625 -27.992188 25.8125 -29.296875 25.65625 -30.390625 Z M 25.65625 -30.390625 "/></g></g></g><g fill="#ffffff" fill-opacity="1"><g transform="translate(449.117463, 100.258042)"><g><path d="M 27.421875 -4.265625 L 29.921875 -4.265625 C 30.441406 -4.265625 31.085938 -4.273438 31.859375 -4.296875 C 32.628906 -4.328125 33.265625 -4.367188 33.765625 -4.421875 L 33.765625 0.625 C 33.367188 0.601562 32.78125 0.578125 32 0.546875 C 31.21875 0.523438 30.566406 0.515625 30.046875 0.515625 L 9.40625 0.515625 C 8.695312 0.515625 8.0625 0.519531 7.5 0.53125 C 6.9375 0.539062 6.273438 0.570312 5.515625 0.625 L 5.515625 -4.46875 C 6.046875 -4.414062 6.65625 -4.367188 7.34375 -4.328125 C 8.03125 -4.285156 8.71875 -4.265625 9.40625 -4.265625 L 22.09375 -4.265625 C 22.21875 -5.097656 22.363281 -6.035156 22.53125 -7.078125 C 22.707031 -8.128906 22.867188 -9.179688 23.015625 -10.234375 C 23.160156 -11.296875 23.289062 -12.273438 23.40625 -13.171875 C 23.519531 -14.078125 23.59375 -14.804688 23.625 -15.359375 L 13.046875 -15.359375 C 12.421875 -15.359375 11.753906 -15.335938 11.046875 -15.296875 C 10.335938 -15.253906 9.695312 -15.207031 9.125 -15.15625 L 9.125 -20.328125 C 9.644531 -20.273438 10.289062 -20.222656 11.0625 -20.171875 C 11.832031 -20.117188 12.476562 -20.09375 13 -20.09375 L 23.03125 -20.09375 C 23.445312 -20.09375 23.972656 -20.128906 24.609375 -20.203125 C 25.253906 -20.285156 25.707031 -20.394531 25.96875 -20.53125 L 29.734375 -18.6875 C 29.628906 -18.425781 29.550781 -18.140625 29.5 -17.828125 C 29.445312 -17.515625 29.394531 -17.253906 29.34375 -17.046875 C 29.257812 -16.460938 29.140625 -15.648438 28.984375 -14.609375 C 28.828125 -13.566406 28.65625 -12.425781 28.46875 -11.1875 C 28.289062 -9.945312 28.109375 -8.71875 27.921875 -7.5 C 27.742188 -6.289062 27.578125 -5.210938 27.421875 -4.265625 Z M 27.421875 -4.265625 "/></g></g></g><g fill="#ffffff" fill-opacity="1"><g transform="translate(488.29182, 100.258042)"><g><path d="M 3.609375 -11.984375 L 3.609375 -18.140625 C 4.078125 -18.109375 4.675781 -18.070312 5.40625 -18.03125 C 6.132812 -18 6.894531 -17.96875 7.6875 -17.9375 C 8.488281 -17.914062 9.226562 -17.90625 9.90625 -17.90625 L 30.953125 -17.90625 C 31.859375 -17.90625 32.722656 -17.9375 33.546875 -18 C 34.367188 -18.0625 35.03125 -18.109375 35.53125 -18.140625 L 35.53125 -11.984375 C 35.0625 -12.015625 34.390625 -12.054688 33.515625 -12.109375 C 32.640625 -12.160156 31.785156 -12.1875 30.953125 -12.1875 L 9.90625 -12.1875 C 8.78125 -12.1875 7.628906 -12.164062 6.453125 -12.125 C 5.285156 -12.082031 4.335938 -12.035156 3.609375 -11.984375 Z M 3.609375 -11.984375 "/></g></g></g><g fill="#ffffff" fill-opacity="1"><g transform="translate(527.466176, 100.258042)"><g><path d="M 12.109375 -31.03125 C 12.960938 -30.550781 13.957031 -29.957031 15.09375 -29.25 C 16.238281 -28.550781 17.34375 -27.851562 18.40625 -27.15625 C 19.476562 -26.46875 20.351562 -25.890625 21.03125 -25.421875 L 18.09375 -21.078125 C 17.363281 -21.597656 16.46875 -22.203125 15.40625 -22.890625 C 14.351562 -23.585938 13.273438 -24.28125 12.171875 -24.96875 C 11.078125 -25.664062 10.101562 -26.25 9.25 -26.71875 Z M 4.8125 -3.21875 C 7.007812 -3.582031 9.25 -4.113281 11.53125 -4.8125 C 13.820312 -5.519531 16.035156 -6.445312 18.171875 -7.59375 C 21.515625 -9.445312 24.5 -11.660156 27.125 -14.234375 C 29.75 -16.804688 31.84375 -19.488281 33.40625 -22.28125 L 36.4375 -16.96875 C 34.601562 -14.269531 32.347656 -11.710938 29.671875 -9.296875 C 26.992188 -6.890625 24.050781 -4.757812 20.84375 -2.90625 C 19.507812 -2.144531 18.050781 -1.4375 16.46875 -0.78125 C 14.894531 -0.125 13.34375 0.441406 11.8125 0.921875 C 10.28125 1.398438 8.925781 1.742188 7.75 1.953125 Z M 6.078125 -22.09375 C 6.960938 -21.625 7.972656 -21.046875 9.109375 -20.359375 C 10.242188 -19.679688 11.347656 -19 12.421875 -18.3125 C 13.492188 -17.625 14.351562 -17.039062 15 -16.5625 L 12.140625 -12.1875 C 11.410156 -12.707031 10.515625 -13.3125 9.453125 -14 C 8.398438 -14.695312 7.316406 -15.382812 6.203125 -16.0625 C 5.097656 -16.738281 4.101562 -17.300781 3.21875 -17.75 Z M 6.078125 -22.09375 "/></g></g></g><g fill="#ffffff" fill-opacity="1"><g transform="translate(566.640533, 100.258042)"><g><path d="M 30.984375 -19.390625 L 30.984375 0.28125 C 30.984375 0.59375 30.988281 1.019531 31 1.5625 C 31.019531 2.113281 31.03125 2.570312 31.03125 2.9375 L 26.09375 2.9375 C 26.113281 2.75 26.125 2.507812 26.125 2.21875 C 26.125 1.9375 26.125 1.65625 26.125 1.375 L 11.28125 1.375 C 10.726562 1.375 10.113281 1.382812 9.4375 1.40625 C 8.757812 1.4375 8.25 1.460938 7.90625 1.484375 L 7.90625 -3.328125 C 8.25 -3.304688 8.726562 -3.273438 9.34375 -3.234375 C 9.957031 -3.191406 10.617188 -3.171875 11.328125 -3.171875 L 26.125 -3.171875 L 26.125 -8.375 L 13.625 -8.375 C 12.894531 -8.375 12.113281 -8.367188 11.28125 -8.359375 C 10.445312 -8.347656 9.804688 -8.328125 9.359375 -8.296875 L 9.359375 -12.921875 C 9.878906 -12.898438 10.535156 -12.875 11.328125 -12.84375 C 12.128906 -12.820312 12.894531 -12.8125 13.625 -12.8125 L 26.125 -12.8125 L 26.125 -17.546875 L 13.203125 -17.546875 C 12.734375 -17.546875 12.175781 -17.539062 11.53125 -17.53125 C 10.894531 -17.519531 10.28125 -17.5 9.6875 -17.46875 C 9.101562 -17.445312 8.65625 -17.421875 8.34375 -17.390625 L 8.34375 -22.125 C 8.6875 -22.101562 9.144531 -22.070312 9.71875 -22.03125 C 10.289062 -21.988281 10.894531 -21.960938 11.53125 -21.953125 C 12.175781 -21.941406 12.734375 -21.9375 13.203125 -21.9375 L 28.015625 -21.9375 C 28.484375 -21.9375 29.019531 -21.941406 29.625 -21.953125 C 30.238281 -21.960938 30.707031 -21.984375 31.03125 -22.015625 C 31 -21.753906 30.984375 -21.351562 30.984375 -20.8125 C 30.984375 -20.28125 30.984375 -19.804688 30.984375 -19.390625 Z M 30.984375 -19.390625 "/></g></g></g><g fill="#ffffff" fill-opacity="1"><g transform="translate(605.814889, 100.258042)"><g><path d="M 9.4375 -29.765625 C 10.113281 -29.296875 10.910156 -28.710938 11.828125 -28.015625 C 12.742188 -27.328125 13.691406 -26.59375 14.671875 -25.8125 C 15.648438 -25.03125 16.5625 -24.265625 17.40625 -23.515625 C 18.257812 -22.773438 18.972656 -22.101562 19.546875 -21.5 L 15.546875 -17.390625 C 15.054688 -17.941406 14.40625 -18.59375 13.59375 -19.34375 C 12.78125 -20.101562 11.90625 -20.890625 10.96875 -21.703125 C 10.03125 -22.515625 9.101562 -23.285156 8.1875 -24.015625 C 7.269531 -24.742188 6.460938 -25.359375 5.765625 -25.859375 Z M 4.546875 -3.6875 C 7.597656 -4.125 10.382812 -4.804688 12.90625 -5.734375 C 15.425781 -6.660156 17.640625 -7.6875 19.546875 -8.8125 C 21.765625 -10.144531 23.800781 -11.648438 25.65625 -13.328125 C 27.507812 -15.015625 29.128906 -16.785156 30.515625 -18.640625 C 31.898438 -20.492188 33 -22.296875 33.8125 -24.046875 L 36.859375 -18.53125 C 35.367188 -15.894531 33.367188 -13.296875 30.859375 -10.734375 C 28.359375 -8.171875 25.523438 -5.9375 22.359375 -4.03125 C 20.378906 -2.832031 18.15625 -1.726562 15.6875 -0.71875 C 13.21875 0.28125 10.597656 1.015625 7.828125 1.484375 Z M 4.546875 -3.6875 "/></g></g></g><g fill="#ffffff" fill-opacity="1"><g transform="translate(644.989245, 100.258042)"><g><path d="M 24.40625 -5.640625 L 19.75 -5.640625 C 19.800781 -6.210938 19.832031 -6.914062 19.84375 -7.75 C 19.851562 -8.59375 19.875 -9.429688 19.90625 -10.265625 C 18.46875 -9.484375 17.367188 -8.691406 16.609375 -7.890625 C 15.847656 -7.097656 15.46875 -6.21875 15.46875 -5.25 C 15.46875 -4.175781 15.929688 -3.445312 16.859375 -3.0625 C 17.785156 -2.6875 19.203125 -2.5 21.109375 -2.5 C 22.753906 -2.5 24.578125 -2.601562 26.578125 -2.8125 C 28.578125 -3.03125 30.425781 -3.304688 32.125 -3.640625 L 31.96875 1.40625 C 31.101562 1.507812 30.039062 1.609375 28.78125 1.703125 C 27.53125 1.796875 26.226562 1.875 24.875 1.9375 C 23.519531 2 22.226562 2.03125 21 2.03125 C 18.988281 2.03125 17.171875 1.84375 15.546875 1.46875 C 13.929688 1.09375 12.660156 0.4375 11.734375 -0.5 C 10.804688 -1.445312 10.34375 -2.753906 10.34375 -4.421875 C 10.34375 -5.648438 10.601562 -6.773438 11.125 -7.796875 C 11.644531 -8.816406 12.347656 -9.75 13.234375 -10.59375 C 14.128906 -11.445312 15.117188 -12.210938 16.203125 -12.890625 C 17.285156 -13.566406 18.375 -14.191406 19.46875 -14.765625 C 19.15625 -15.265625 18.753906 -15.609375 18.265625 -15.796875 C 17.785156 -15.992188 17.285156 -16.09375 16.765625 -16.09375 C 15.671875 -16.09375 14.570312 -15.828125 13.46875 -15.296875 C 12.375 -14.765625 11.445312 -14.144531 10.6875 -13.4375 C 10.113281 -12.863281 9.539062 -12.21875 8.96875 -11.5 C 8.394531 -10.78125 7.769531 -10.003906 7.09375 -9.171875 L 2.9375 -12.265625 C 4.976562 -14.140625 6.695312 -15.953125 8.09375 -17.703125 C 9.488281 -19.453125 10.617188 -21.191406 11.484375 -22.921875 L 11 -22.921875 C 10.21875 -22.921875 9.203125 -22.9375 7.953125 -22.96875 C 6.703125 -23.007812 5.539062 -23.082031 4.46875 -23.1875 L 4.46875 -27.734375 C 5.457031 -27.578125 6.597656 -27.460938 7.890625 -27.390625 C 9.179688 -27.328125 10.3125 -27.296875 11.28125 -27.296875 L 13.15625 -27.296875 C 13.625 -29.097656 13.882812 -30.578125 13.9375 -31.734375 L 19.03125 -31.296875 C 18.925781 -30.828125 18.800781 -30.265625 18.65625 -29.609375 C 18.519531 -28.960938 18.332031 -28.242188 18.09375 -27.453125 C 19.925781 -27.554688 21.785156 -27.691406 23.671875 -27.859375 C 25.566406 -28.035156 27.363281 -28.28125 29.0625 -28.59375 L 29.03125 -24.046875 C 27.175781 -23.785156 25.125 -23.570312 22.875 -23.40625 C 20.625 -23.238281 18.457031 -23.113281 16.375 -23.03125 C 16.0625 -22.351562 15.710938 -21.675781 15.328125 -21 C 14.953125 -20.320312 14.554688 -19.691406 14.140625 -19.109375 C 14.660156 -19.367188 15.359375 -19.566406 16.234375 -19.703125 C 17.109375 -19.835938 17.875 -19.90625 18.53125 -19.90625 C 19.707031 -19.90625 20.757812 -19.648438 21.6875 -19.140625 C 22.613281 -18.628906 23.285156 -17.878906 23.703125 -16.890625 C 24.691406 -17.359375 25.609375 -17.773438 26.453125 -18.140625 C 27.304688 -18.503906 28.140625 -18.851562 28.953125 -19.1875 C 29.703125 -19.53125 30.421875 -19.863281 31.109375 -20.1875 C 31.804688 -20.519531 32.507812 -20.851562 33.21875 -21.1875 L 35.171875 -16.6875 C 34.546875 -16.53125 33.789062 -16.285156 32.90625 -15.953125 C 32.019531 -15.628906 31.234375 -15.328125 30.546875 -15.046875 C 29.691406 -14.703125 28.726562 -14.3125 27.65625 -13.875 C 26.582031 -13.445312 25.445312 -12.960938 24.25 -12.421875 C 24.269531 -11.347656 24.289062 -10.171875 24.3125 -8.890625 C 24.34375 -7.609375 24.375 -6.523438 24.40625 -5.640625 Z M 24.40625 -5.640625 "/></g></g></g><g fill="#ffffff" fill-opacity="1"><g transform="translate(215.83417, 154.122679)"><g><path d="M 10.921875 -3.484375 C 11.296875 -3.484375 11.597656 -3.597656 11.828125 -3.828125 C 12.066406 -4.066406 12.1875 -4.515625 12.1875 -5.171875 C 12.1875 -5.671875 12.175781 -6.335938 12.15625 -7.171875 C 12.144531 -8.003906 12.113281 -8.929688 12.0625 -9.953125 C 10.863281 -9.347656 9.90625 -8.664062 9.1875 -7.90625 C 8.46875 -7.15625 8.109375 -6.441406 8.109375 -5.765625 C 8.109375 -5.367188 8.269531 -4.992188 8.59375 -4.640625 C 8.925781 -4.285156 9.3125 -4.003906 9.75 -3.796875 C 10.195312 -3.585938 10.585938 -3.484375 10.921875 -3.484375 Z M 16.453125 -17.4375 L 16.453125 -16.0625 C 17.753906 -16.394531 19.050781 -16.644531 20.34375 -16.8125 C 21.632812 -16.988281 22.816406 -17.078125 23.890625 -17.078125 C 25.878906 -17.078125 27.675781 -16.738281 29.28125 -16.0625 C 30.882812 -15.382812 32.160156 -14.410156 33.109375 -13.140625 C 34.066406 -11.878906 34.546875 -10.359375 34.546875 -8.578125 C 34.546875 -6.273438 33.890625 -4.296875 32.578125 -2.640625 C 31.273438 -0.984375 29.085938 0.222656 26.015625 0.984375 C 25.117188 1.160156 24.234375 1.296875 23.359375 1.390625 C 22.484375 1.484375 21.671875 1.554688 20.921875 1.609375 L 19.109375 -3.375 C 20.003906 -3.375 20.851562 -3.390625 21.65625 -3.421875 C 22.46875 -3.460938 23.210938 -3.535156 23.890625 -3.640625 C 25.460938 -3.929688 26.796875 -4.476562 27.890625 -5.28125 C 28.984375 -6.09375 29.53125 -7.207031 29.53125 -8.625 C 29.53125 -9.925781 29 -10.941406 27.9375 -11.671875 C 26.882812 -12.398438 25.507812 -12.765625 23.8125 -12.765625 C 22.613281 -12.765625 21.398438 -12.671875 20.171875 -12.484375 C 18.941406 -12.304688 17.726562 -12.050781 16.53125 -11.71875 C 16.582031 -10.175781 16.625 -8.722656 16.65625 -7.359375 C 16.695312 -6.003906 16.71875 -4.988281 16.71875 -4.3125 C 16.71875 -2.71875 16.535156 -1.472656 16.171875 -0.578125 C 15.804688 0.304688 15.300781 0.914062 14.65625 1.25 C 14.019531 1.59375 13.285156 1.765625 12.453125 1.765625 C 11.515625 1.765625 10.507812 1.570312 9.4375 1.1875 C 8.363281 0.8125 7.363281 0.289062 6.4375 -0.375 C 5.507812 -1.039062 4.753906 -1.820312 4.171875 -2.71875 C 3.585938 -3.625 3.296875 -4.585938 3.296875 -5.609375 C 3.296875 -6.753906 3.691406 -7.878906 4.484375 -8.984375 C 5.285156 -10.097656 6.34375 -11.132812 7.65625 -12.09375 C 8.976562 -13.0625 10.421875 -13.890625 11.984375 -14.578125 C 11.960938 -15.015625 11.953125 -15.460938 11.953125 -15.921875 C 11.953125 -16.378906 11.953125 -16.832031 11.953125 -17.28125 L 11.953125 -20.53125 C 11.585938 -20.5 11.226562 -20.476562 10.875 -20.46875 C 10.519531 -20.457031 10.1875 -20.453125 9.875 -20.453125 C 8.988281 -20.453125 8.070312 -20.460938 7.125 -20.484375 C 6.1875 -20.515625 5.300781 -20.566406 4.46875 -20.640625 L 4.390625 -25.34375 C 5.535156 -25.207031 6.539062 -25.117188 7.40625 -25.078125 C 8.269531 -25.046875 9.050781 -25.03125 9.75 -25.03125 C 10.113281 -25.03125 10.476562 -25.035156 10.84375 -25.046875 C 11.21875 -25.054688 11.597656 -25.078125 11.984375 -25.109375 C 12.015625 -25.785156 12.03125 -26.394531 12.03125 -26.9375 C 12.03125 -27.488281 12.03125 -27.9375 12.03125 -28.28125 C 12.03125 -28.570312 12.015625 -28.9375 11.984375 -29.375 C 11.960938 -29.820312 11.929688 -30.257812 11.890625 -30.6875 C 11.847656 -31.125 11.800781 -31.457031 11.75 -31.6875 L 17.078125 -31.6875 C 17.054688 -31.351562 17.007812 -30.832031 16.9375 -30.125 C 16.875 -29.414062 16.816406 -28.816406 16.765625 -28.328125 C 16.734375 -27.898438 16.710938 -27.453125 16.703125 -26.984375 C 16.691406 -26.515625 16.671875 -26.035156 16.640625 -25.546875 C 17.921875 -25.722656 19.175781 -25.9375 20.40625 -26.1875 C 21.632812 -26.4375 22.757812 -26.703125 23.78125 -26.984375 L 23.890625 -22.125 C 22.796875 -21.863281 21.609375 -21.632812 20.328125 -21.4375 C 19.046875 -21.25 17.765625 -21.078125 16.484375 -20.921875 C 16.460938 -20.347656 16.453125 -19.765625 16.453125 -19.171875 C 16.453125 -18.585938 16.453125 -18.007812 16.453125 -17.4375 Z M 26.015625 -23.703125 L 28.171875 -27.5 C 29.160156 -27.03125 30.257812 -26.460938 31.46875 -25.796875 C 32.6875 -25.128906 33.859375 -24.460938 34.984375 -23.796875 C 36.109375 -23.128906 37.007812 -22.546875 37.6875 -22.046875 L 35.328125 -18.0625 C 34.859375 -18.445312 34.234375 -18.898438 33.453125 -19.421875 C 32.671875 -19.953125 31.816406 -20.488281 30.890625 -21.03125 C 29.960938 -21.582031 29.066406 -22.09375 28.203125 -22.5625 C 27.335938 -23.03125 26.609375 -23.410156 26.015625 -23.703125 Z M 26.015625 -23.703125 "/></g></g></g><g fill="#ffffff" fill-opacity="1"><g transform="translate(255.008527, 154.122679)"><g><path d="M 25.421875 -1.921875 L 31.109375 -1.921875 L 31.109375 -5.09375 L 25.421875 -5.09375 Z M 15.625 -5.09375 L 15.625 -1.921875 L 20.921875 -1.921875 L 20.921875 -5.09375 Z M 20.921875 -11.71875 L 15.625 -11.71875 L 15.625 -8.8125 L 20.921875 -8.8125 Z M 31.109375 -11.71875 L 25.421875 -11.71875 L 25.421875 -8.8125 L 31.109375 -8.8125 Z M 30.390625 -27.1875 L 9.90625 -27.1875 L 9.90625 -23.8125 L 30.390625 -23.8125 Z M 25.421875 -15.78125 L 35.6875 -15.78125 L 35.6875 3.375 L 31.109375 3.375 L 31.109375 2.15625 L 15.625 2.15625 L 15.625 3.375 L 11.25 3.375 L 11.25 -15.78125 L 20.921875 -15.78125 L 20.921875 -19.625 L 9.90625 -19.625 C 9.90625 -17.925781 9.847656 -16.070312 9.734375 -14.0625 C 9.617188 -12.050781 9.390625 -10.003906 9.046875 -7.921875 C 8.710938 -5.847656 8.226562 -3.835938 7.59375 -1.890625 C 6.96875 0.046875 6.144531 1.800781 5.125 3.375 C 4.84375 3.113281 4.445312 2.832031 3.9375 2.53125 C 3.425781 2.226562 2.898438 1.929688 2.359375 1.640625 C 1.828125 1.359375 1.367188 1.140625 0.984375 0.984375 C 1.972656 -0.503906 2.75 -2.132812 3.3125 -3.90625 C 3.875 -5.6875 4.285156 -7.507812 4.546875 -9.375 C 4.804688 -11.25 4.972656 -13.085938 5.046875 -14.890625 C 5.128906 -16.691406 5.171875 -18.363281 5.171875 -19.90625 L 5.171875 -31.375 L 35.140625 -31.375 L 35.140625 -19.625 L 25.421875 -19.625 Z M 25.421875 -15.78125 "/></g></g></g><g fill="#ffffff" fill-opacity="1"><g transform="translate(294.182883, 154.122679)"><g><path d="M 5.328125 -30.953125 L 11.078125 -30.359375 C 10.921875 -29.890625 10.75 -29.351562 10.5625 -28.75 C 10.382812 -28.144531 10.257812 -27.632812 10.1875 -27.21875 C 9.945312 -26.15625 9.703125 -24.882812 9.453125 -23.40625 C 9.210938 -21.925781 9 -20.382812 8.8125 -18.78125 C 8.632812 -17.175781 8.535156 -15.609375 8.515625 -14.078125 C 8.503906 -12.554688 8.628906 -11.191406 8.890625 -9.984375 C 9.148438 -10.585938 9.4375 -11.304688 9.75 -12.140625 C 10.0625 -12.972656 10.375 -13.742188 10.6875 -14.453125 L 13.15625 -12.921875 C 12.789062 -11.804688 12.429688 -10.660156 12.078125 -9.484375 C 11.734375 -8.304688 11.425781 -7.1875 11.15625 -6.125 C 10.894531 -5.070312 10.6875 -4.179688 10.53125 -3.453125 C 10.457031 -3.160156 10.394531 -2.820312 10.34375 -2.4375 C 10.289062 -2.0625 10.265625 -1.769531 10.265625 -1.5625 C 10.285156 -1.382812 10.300781 -1.144531 10.3125 -0.84375 C 10.332031 -0.539062 10.351562 -0.242188 10.375 0.046875 L 6.03125 0.46875 C 5.769531 -0.3125 5.460938 -1.378906 5.109375 -2.734375 C 4.753906 -4.097656 4.445312 -5.601562 4.1875 -7.25 C 3.925781 -8.894531 3.796875 -10.515625 3.796875 -12.109375 C 3.796875 -14.222656 3.867188 -16.265625 4.015625 -18.234375 C 4.160156 -20.203125 4.335938 -21.988281 4.546875 -23.59375 C 4.753906 -25.207031 4.9375 -26.535156 5.09375 -27.578125 C 5.195312 -28.128906 5.257812 -28.703125 5.28125 -29.296875 C 5.3125 -29.898438 5.328125 -30.453125 5.328125 -30.953125 Z M 36 -24.125 L 35.953125 -19.078125 C 35.171875 -18.972656 34.289062 -18.878906 33.3125 -18.796875 C 32.332031 -18.722656 31.296875 -18.660156 30.203125 -18.609375 L 30.203125 -17 C 30.203125 -14.695312 30.113281 -12.601562 29.9375 -10.71875 C 29.769531 -8.84375 29.410156 -7.125 28.859375 -5.5625 C 28.316406 -4 27.484375 -2.535156 26.359375 -1.171875 C 25.234375 0.179688 23.707031 1.472656 21.78125 2.703125 L 17.28125 -0.828125 C 18.03125 -1.160156 18.835938 -1.609375 19.703125 -2.171875 C 20.566406 -2.734375 21.269531 -3.316406 21.8125 -3.921875 C 22.8125 -4.960938 23.570312 -6.070312 24.09375 -7.25 C 24.613281 -8.425781 24.960938 -9.800781 25.140625 -11.375 C 25.328125 -12.957031 25.421875 -14.832031 25.421875 -17 L 25.421875 -18.40625 C 24.691406 -18.382812 23.957031 -18.363281 23.21875 -18.34375 C 22.488281 -18.332031 21.773438 -18.328125 21.078125 -18.328125 C 20.242188 -18.328125 19.273438 -18.351562 18.171875 -18.40625 C 17.078125 -18.457031 16.046875 -18.5 15.078125 -18.53125 L 15.078125 -23.46875 C 16.046875 -23.332031 17.003906 -23.234375 17.953125 -23.171875 C 18.910156 -23.109375 19.910156 -23.078125 20.953125 -23.078125 C 21.660156 -23.078125 22.382812 -23.082031 23.125 -23.09375 C 23.875 -23.101562 24.613281 -23.125 25.34375 -23.15625 C 25.320312 -24.21875 25.296875 -25.21875 25.265625 -26.15625 C 25.242188 -27.101562 25.203125 -27.835938 25.140625 -28.359375 C 25.117188 -28.773438 25.066406 -29.238281 24.984375 -29.75 C 24.910156 -30.257812 24.820312 -30.6875 24.71875 -31.03125 L 30.390625 -31.03125 C 30.316406 -30.601562 30.269531 -30.164062 30.25 -29.71875 C 30.238281 -29.28125 30.222656 -28.84375 30.203125 -28.40625 C 30.171875 -27.976562 30.15625 -27.304688 30.15625 -26.390625 C 30.15625 -25.484375 30.15625 -24.492188 30.15625 -23.421875 C 31.257812 -23.503906 32.304688 -23.601562 33.296875 -23.71875 C 34.285156 -23.832031 35.1875 -23.96875 36 -24.125 Z M 36 -24.125 "/></g></g></g><g fill="#ffffff" fill-opacity="1"><g transform="translate(333.35724, 154.122679)"><g><path d="M 8.34375 -31.03125 L 14.609375 -30.953125 C 14.484375 -30.140625 14.375 -29.269531 14.28125 -28.34375 C 14.1875 -27.414062 14.128906 -26.5625 14.109375 -25.78125 C 14.054688 -24.726562 14 -23.453125 13.9375 -21.953125 C 13.882812 -20.453125 13.832031 -18.863281 13.78125 -17.1875 C 13.726562 -15.519531 13.6875 -13.890625 13.65625 -12.296875 C 13.632812 -10.703125 13.625 -9.304688 13.625 -8.109375 C 13.625 -6.804688 13.859375 -5.773438 14.328125 -5.015625 C 14.804688 -4.253906 15.445312 -3.71875 16.25 -3.40625 C 17.0625 -3.09375 17.960938 -2.9375 18.953125 -2.9375 C 21.097656 -2.9375 22.992188 -3.300781 24.640625 -4.03125 C 26.285156 -4.757812 27.734375 -5.722656 28.984375 -6.921875 C 30.242188 -8.128906 31.328125 -9.4375 32.234375 -10.84375 L 35.765625 -6.5 C 35.140625 -5.582031 34.320312 -4.609375 33.3125 -3.578125 C 32.3125 -2.546875 31.109375 -1.578125 29.703125 -0.671875 C 28.304688 0.222656 26.710938 0.945312 24.921875 1.5 C 23.140625 2.0625 21.140625 2.34375 18.921875 2.34375 C 16.804688 2.34375 14.960938 2.015625 13.390625 1.359375 C 11.828125 0.710938 10.613281 -0.300781 9.75 -1.6875 C 8.894531 -3.070312 8.46875 -4.859375 8.46875 -7.046875 C 8.46875 -8.097656 8.476562 -9.300781 8.5 -10.65625 C 8.53125 -12.007812 8.5625 -13.429688 8.59375 -14.921875 C 8.632812 -16.410156 8.675781 -17.851562 8.71875 -19.25 C 8.757812 -20.644531 8.789062 -21.914062 8.8125 -23.0625 C 8.84375 -24.21875 8.859375 -25.125 8.859375 -25.78125 C 8.859375 -26.6875 8.816406 -27.597656 8.734375 -28.515625 C 8.660156 -29.429688 8.53125 -30.269531 8.34375 -31.03125 Z M 8.34375 -31.03125 "/></g></g></g><g fill="#ffffff" fill-opacity="1"><g transform="translate(372.531596, 154.122679)"><g><path d="M 18.6875 -5.125 C 18.6875 -5.332031 18.6875 -5.570312 18.6875 -5.84375 C 18.6875 -6.125 18.671875 -6.4375 18.640625 -6.78125 C 18.148438 -6.851562 17.632812 -6.914062 17.09375 -6.96875 C 16.5625 -7.019531 16.019531 -7.046875 15.46875 -7.046875 C 14.113281 -7.046875 13.070312 -6.816406 12.34375 -6.359375 C 11.613281 -5.910156 11.25 -5.34375 11.25 -4.65625 C 11.25 -3.925781 11.585938 -3.34375 12.265625 -2.90625 C 12.941406 -2.476562 13.945312 -2.265625 15.28125 -2.265625 C 16.320312 -2.265625 17.148438 -2.460938 17.765625 -2.859375 C 18.378906 -3.253906 18.6875 -4.007812 18.6875 -5.125 Z M 34.203125 -4.15625 L 31.421875 0.203125 C 30.367188 -0.796875 29.179688 -1.765625 27.859375 -2.703125 C 26.546875 -3.640625 25.117188 -4.460938 23.578125 -5.171875 C 23.609375 -4.910156 23.625 -4.664062 23.625 -4.4375 C 23.625 -4.21875 23.625 -4.003906 23.625 -3.796875 C 23.625 -2.128906 22.988281 -0.734375 21.71875 0.390625 C 20.457031 1.515625 18.546875 2.078125 15.984375 2.078125 C 12.898438 2.078125 10.546875 1.515625 8.921875 0.390625 C 7.304688 -0.734375 6.5 -2.328125 6.5 -4.390625 C 6.5 -6.347656 7.347656 -7.945312 9.046875 -9.1875 C 10.742188 -10.425781 13.09375 -11.046875 16.09375 -11.046875 C 16.90625 -11.046875 17.703125 -11.003906 18.484375 -10.921875 C 18.460938 -11.523438 18.4375 -12.117188 18.40625 -12.703125 C 18.382812 -13.296875 18.359375 -13.878906 18.328125 -14.453125 L 16.328125 -14.453125 C 15.578125 -14.453125 14.632812 -14.472656 13.5 -14.515625 C 12.363281 -14.554688 11.210938 -14.613281 10.046875 -14.6875 C 8.878906 -14.769531 7.867188 -14.863281 7.015625 -14.96875 L 7.046875 -19.546875 C 7.597656 -19.441406 8.296875 -19.34375 9.140625 -19.25 C 9.992188 -19.15625 10.875 -19.082031 11.78125 -19.03125 C 12.695312 -18.976562 13.566406 -18.929688 14.390625 -18.890625 C 15.210938 -18.859375 15.882812 -18.84375 16.40625 -18.84375 L 18.25 -18.84375 L 18.25 -22.875 L 16.40625 -22.875 C 15.601562 -22.875 14.6875 -22.898438 13.65625 -22.953125 C 12.625 -23.003906 11.609375 -23.078125 10.609375 -23.171875 C 9.617188 -23.265625 8.742188 -23.363281 7.984375 -23.46875 L 7.953125 -27.890625 C 8.765625 -27.734375 9.671875 -27.601562 10.671875 -27.5 C 11.679688 -27.394531 12.6875 -27.304688 13.6875 -27.234375 C 14.695312 -27.171875 15.59375 -27.140625 16.375 -27.140625 L 18.296875 -27.140625 L 18.296875 -28.90625 C 18.296875 -29.269531 18.28125 -29.710938 18.25 -30.234375 C 18.226562 -30.765625 18.175781 -31.210938 18.09375 -31.578125 L 23.390625 -31.578125 C 23.335938 -31.179688 23.285156 -30.75 23.234375 -30.28125 C 23.179688 -29.8125 23.140625 -29.328125 23.109375 -28.828125 L 23.078125 -27.296875 C 24.585938 -27.347656 26.085938 -27.453125 27.578125 -27.609375 C 29.066406 -27.765625 30.644531 -27.976562 32.3125 -28.25 L 32.4375 -23.78125 C 31.15625 -23.675781 29.726562 -23.550781 28.15625 -23.40625 C 26.59375 -23.257812 24.882812 -23.132812 23.03125 -23.03125 L 23 -19 C 24.957031 -19.070312 26.769531 -19.191406 28.4375 -19.359375 C 30.113281 -19.535156 31.742188 -19.71875 33.328125 -19.90625 L 33.328125 -15.3125 C 31.578125 -15.132812 29.898438 -14.972656 28.296875 -14.828125 C 26.691406 -14.679688 24.953125 -14.582031 23.078125 -14.53125 C 23.128906 -13.800781 23.171875 -13.054688 23.203125 -12.296875 C 23.242188 -11.535156 23.289062 -10.78125 23.34375 -10.03125 C 25.800781 -9.320312 27.941406 -8.398438 29.765625 -7.265625 C 31.597656 -6.128906 33.078125 -5.09375 34.203125 -4.15625 Z M 34.203125 -4.15625 "/></g></g></g><g fill="#ffffff" fill-opacity="1"><g transform="translate(411.705952, 154.122679)"><g><path d="M 15.78125 -12.890625 C 15.78125 -12.003906 16.085938 -11.296875 16.703125 -10.765625 C 17.316406 -10.242188 18.003906 -9.984375 18.765625 -9.984375 C 19.578125 -9.984375 20.269531 -10.328125 20.84375 -11.015625 C 21.414062 -11.710938 21.570312 -12.898438 21.3125 -14.578125 C 20.789062 -15.484375 19.941406 -15.9375 18.765625 -15.9375 C 18.035156 -15.9375 17.351562 -15.679688 16.71875 -15.171875 C 16.09375 -14.671875 15.78125 -13.910156 15.78125 -12.890625 Z M 36.46875 -26.953125 L 36.4375 -22.359375 C 35.257812 -22.421875 33.75 -22.46875 31.90625 -22.5 C 30.0625 -22.539062 27.820312 -22.5625 25.1875 -22.5625 C 25.21875 -21.59375 25.234375 -20.597656 25.234375 -19.578125 C 25.234375 -18.566406 25.234375 -17.644531 25.234375 -16.8125 C 25.722656 -16.070312 26.082031 -15.242188 26.3125 -14.328125 C 26.550781 -13.421875 26.671875 -12.457031 26.671875 -11.4375 C 26.671875 -10.1875 26.460938 -8.875 26.046875 -7.5 C 25.628906 -6.125 24.941406 -4.785156 23.984375 -3.484375 C 23.035156 -2.179688 21.765625 -0.992188 20.171875 0.078125 C 18.578125 1.148438 16.59375 2.023438 14.21875 2.703125 L 10.109375 -1.453125 C 12.066406 -1.867188 13.867188 -2.421875 15.515625 -3.109375 C 17.160156 -3.804688 18.519531 -4.726562 19.59375 -5.875 C 19.320312 -5.820312 19.035156 -5.773438 18.734375 -5.734375 C 18.441406 -5.703125 18.140625 -5.6875 17.828125 -5.6875 C 16.828125 -5.6875 15.804688 -5.953125 14.765625 -6.484375 C 13.722656 -7.015625 12.851562 -7.804688 12.15625 -8.859375 C 11.46875 -9.921875 11.125 -11.238281 11.125 -12.8125 C 11.125 -14.269531 11.472656 -15.539062 12.171875 -16.625 C 12.878906 -17.707031 13.820312 -18.550781 15 -19.15625 C 16.175781 -19.757812 17.46875 -20.0625 18.875 -20.0625 C 19.425781 -20.0625 19.9375 -20.019531 20.40625 -19.9375 L 20.375 -22.53125 C 17.445312 -22.5 14.539062 -22.421875 11.65625 -22.296875 C 8.769531 -22.179688 6.125 -22.0625 3.71875 -21.9375 L 3.609375 -26.640625 C 5.097656 -26.640625 6.804688 -26.65625 8.734375 -26.6875 C 10.671875 -26.726562 12.648438 -26.769531 14.671875 -26.8125 C 16.691406 -26.851562 18.566406 -26.882812 20.296875 -26.90625 C 20.296875 -27.144531 20.296875 -27.367188 20.296875 -27.578125 C 20.296875 -27.785156 20.28125 -27.957031 20.25 -28.09375 C 20.226562 -28.71875 20.179688 -29.351562 20.109375 -30 C 20.046875 -30.65625 19.976562 -31.140625 19.90625 -31.453125 L 25.546875 -31.453125 C 25.515625 -31.242188 25.476562 -30.914062 25.4375 -30.46875 C 25.40625 -30.03125 25.375 -29.582031 25.34375 -29.125 C 25.320312 -28.664062 25.296875 -28.332031 25.265625 -28.125 C 25.265625 -27.96875 25.257812 -27.789062 25.25 -27.59375 C 25.238281 -27.394531 25.234375 -27.179688 25.234375 -26.953125 C 26.535156 -26.953125 27.929688 -26.953125 29.421875 -26.953125 C 30.910156 -26.953125 32.285156 -26.957031 33.546875 -26.96875 C 34.816406 -26.976562 35.789062 -26.972656 36.46875 -26.953125 Z M 36.46875 -26.953125 "/></g></g></g></svg>