<svg xmlns="http://www.w3.org/2000/svg" xmlns:xlink="http://www.w3.org/1999/xlink" width="500" zoomAndPan="magnify" viewBox="0 0 375 374.999991" height="500" preserveAspectRatio="xMidYMid meet" version="1.0"><defs><g/><clipPath id="2540b51ff2"><path d="M 221 183 L 239 183 L 239 207 L 221 207 Z M 221 183 " clip-rule="nonzero"/></clipPath><clipPath id="db0f642c82"><path d="M 237.976562 207.753906 L 219.378906 205.390625 L 222.210938 183.070312 L 240.8125 185.429688 Z M 237.976562 207.753906 " clip-rule="nonzero"/></clipPath><clipPath id="5a67e2adaa"><path d="M 219.46875 205.402344 L 238.070312 207.765625 L 240.90625 185.441406 L 222.304688 183.082031 Z M 219.46875 205.402344 " clip-rule="nonzero"/></clipPath></defs><g fill="#ffffff" fill-opacity="1"><g transform="translate(171.567196, 202.124987)"><g><path d="M 12.53125 -36.328125 L 12.53125 -8 L 23.84375 -8 L 23.84375 0 L 3.078125 0 L 3.078125 -36.328125 Z M 12.53125 -36.328125 "/></g></g></g><g fill="#ffffff" fill-opacity="1"><g transform="translate(190.301399, 202.124987)"><g><path d="M 12.53125 -36.328125 L 12.53125 0 L 3.078125 0 L 3.078125 -36.328125 Z M 12.53125 -36.328125 "/></g></g></g><g fill="#ffffff" fill-opacity="1"><g transform="translate(200.799553, 202.124987)"><g><path d="M 41.421875 -18.828125 C 41.421875 -14.972656 40.550781 -11.515625 38.8125 -8.453125 C 37.082031 -5.390625 34.675781 -3.015625 31.59375 -1.328125 C 28.507812 0.359375 25.1875 1.203125 21.625 1.203125 C 17.675781 1.203125 14.144531 0.34375 11.03125 -1.375 C 7.914062 -3.09375 5.503906 -5.457031 3.796875 -8.46875 C 2.097656 -11.488281 1.25 -14.800781 1.25 -18.40625 C 1.25 -21.707031 2.023438 -24.785156 3.578125 -27.640625 C 5.140625 -30.503906 7.523438 -32.867188 10.734375 -34.734375 C 13.953125 -36.597656 17.488281 -37.53125 21.34375 -37.53125 C 24.875 -37.53125 28.1875 -36.71875 31.28125 -35.09375 C 34.382812 -33.46875 36.847656 -31.21875 38.671875 -28.34375 C 40.503906 -25.46875 41.421875 -22.296875 41.421875 -18.828125 Z M 21.34375 -7.953125 C 24.257812 -7.953125 26.695312 -9.007812 28.65625 -11.125 C 30.613281 -13.25 31.59375 -15.800781 31.59375 -18.78125 C 31.59375 -21.289062 30.582031 -23.515625 28.5625 -25.453125 C 26.539062 -27.398438 24.117188 -28.375 21.296875 -28.375 C 18.628906 -28.375 16.273438 -27.429688 14.234375 -25.546875 C 12.191406 -23.671875 11.140625 -21.414062 11.078125 -18.78125 C 11.078125 -15.664062 12.070312 -13.082031 14.0625 -11.03125 C 16.050781 -8.976562 18.476562 -7.953125 21.34375 -7.953125 Z M 21.34375 -7.953125 "/></g></g></g><g fill="#ffffff" fill-opacity="1"><g transform="translate(238.414066, 202.124987)"><g><path d="M 12.328125 -36.328125 L 12.328125 -16.859375 C 12.328125 -14.316406 12.535156 -12.4375 12.953125 -11.21875 C 13.367188 -10 14.035156 -9.046875 14.953125 -8.359375 C 15.867188 -7.671875 17.128906 -7.328125 18.734375 -7.328125 C 20.890625 -7.328125 22.492188 -8.007812 23.546875 -9.375 C 24.609375 -10.738281 25.140625 -13.21875 25.140625 -16.8125 L 25.140625 -36.328125 L 34.59375 -36.328125 L 34.59375 -15.46875 C 34.59375 -11.320312 34.0625 -8.1875 33 -6.0625 C 31.9375 -3.945312 30.179688 -2.242188 27.734375 -0.953125 C 25.296875 0.328125 22.296875 0.96875 18.734375 0.96875 C 15.296875 0.96875 12.359375 0.375 9.921875 -0.8125 C 7.484375 -2 5.703125 -3.675781 4.578125 -5.84375 C 3.453125 -8.019531 2.890625 -11.226562 2.890625 -15.46875 L 2.890625 -36.328125 Z M 12.328125 -36.328125 "/></g></g></g><g fill="#ffffff" fill-opacity="1"><g transform="translate(270.778699, 202.124987)"><g><path d="M 12.53125 -36.328125 L 12.53125 0 L 3.078125 0 L 3.078125 -36.328125 Z M 12.53125 -36.328125 "/></g></g></g><g fill="#ffffff" fill-opacity="1"><g transform="translate(281.276856, 202.124987)"><g><path d="M 16.578125 -36.328125 C 19.847656 -36.328125 22.894531 -35.519531 25.71875 -33.90625 C 28.550781 -32.300781 30.789062 -30.085938 32.4375 -27.265625 C 34.09375 -24.441406 34.921875 -21.40625 34.921875 -18.15625 C 34.921875 -14.882812 34.078125 -11.828125 32.390625 -8.984375 C 30.703125 -6.140625 28.4375 -3.929688 25.59375 -2.359375 C 22.757812 -0.785156 19.71875 0 16.46875 0 L 3.078125 0 L 3.078125 -36.328125 Z M 12.53125 -8 L 13.921875 -8 C 16.003906 -8 17.660156 -8.222656 18.890625 -8.671875 C 23.023438 -10.117188 25.09375 -13.28125 25.09375 -18.15625 C 25.09375 -21.34375 24.144531 -23.832031 22.25 -25.625 C 20.351562 -27.425781 17.898438 -28.328125 14.890625 -28.328125 L 12.53125 -28.328125 Z M 12.53125 -8 "/></g></g></g><g clip-path="url(#2540b51ff2)"><g clip-path="url(#db0f642c82)"><g clip-path="url(#5a67e2adaa)"><path fill="#ffffff" d="M 236.667969 199.253906 C 234.101562 196.394531 230.179688 195.152344 227.273438 192.640625 C 225.011719 190.691406 223.402344 187.890625 223.25 184.90625 C 223.222656 184.339844 223.25 183.765625 223.335938 183.203125 C 222.199219 185.527344 221.675781 188.210938 221.601562 190.816406 C 221.492188 194.558594 222.238281 198.425781 224.363281 201.511719 C 226.484375 204.597656 230.140625 206.757812 233.875 206.476562 C 235.59375 206.34375 237.449219 205.535156 238.050781 203.921875 C 238.648438 202.320312 237.804688 200.523438 236.667969 199.253906 Z M 236.667969 199.253906 " fill-opacity="1" fill-rule="nonzero"/></g></g></g><g fill="#ffffff" fill-opacity="1"><g transform="translate(57.489847, 202.124987)"><g><path d="M 25.34375 -36.328125 L 25.34375 -28.328125 L 17.53125 -28.328125 L 17.53125 0 L 8.09375 0 L 8.09375 -28.328125 L 0.28125 -28.328125 L 0.28125 -36.328125 Z M 25.34375 -36.328125 "/></g></g></g><g fill="#ffffff" fill-opacity="1"><g transform="translate(78.054281, 202.124987)"><g><path d="M 23.75 -36.328125 L 23.75 -28.328125 L 12.53125 -28.328125 L 12.53125 -22.25 L 23.171875 -22.25 L 23.171875 -14.265625 L 12.53125 -14.265625 L 12.53125 -8 L 23.75 -8 L 23.75 0 L 3.078125 0 L 3.078125 -36.328125 Z M 23.75 -36.328125 "/></g></g></g><g fill="#ffffff" fill-opacity="1"><g transform="translate(99.437505, 202.124987)"><g><path d="M 29.046875 -24.140625 C 28.117188 -25.421875 26.914062 -26.40625 25.4375 -27.09375 C 23.957031 -27.78125 22.398438 -28.125 20.765625 -28.125 C 17.972656 -28.125 15.660156 -27.175781 13.828125 -25.28125 C 11.992188 -23.394531 11.078125 -20.988281 11.078125 -18.0625 C 11.078125 -15.175781 11.984375 -12.804688 13.796875 -10.953125 C 15.609375 -9.109375 17.976562 -8.1875 20.90625 -8.1875 C 22.445312 -8.1875 23.929688 -8.523438 25.359375 -9.203125 C 26.785156 -9.878906 28.015625 -10.828125 29.046875 -12.046875 L 29.046875 -0.71875 C 27.378906 -0.207031 25.882812 0.195312 24.5625 0.5 C 23.25 0.8125 21.96875 0.96875 20.71875 0.96875 C 15.644531 0.96875 11.128906 -0.789062 7.171875 -4.3125 C 3.222656 -7.832031 1.25 -12.429688 1.25 -18.109375 C 1.25 -21.609375 2.113281 -24.835938 3.84375 -27.796875 C 5.582031 -30.753906 7.945312 -33.070312 10.9375 -34.75 C 13.925781 -36.4375 17.085938 -37.28125 20.421875 -37.28125 C 23.117188 -37.28125 25.992188 -36.671875 29.046875 -35.453125 Z M 29.046875 -24.140625 "/></g></g></g><g fill="#ffffff" fill-opacity="1"><g transform="translate(126.11878, 202.124987)"><g><path d="M 12.53125 -36.328125 L 12.53125 -22.296875 L 26.15625 -22.296875 L 26.15625 -36.328125 L 35.59375 -36.328125 L 35.59375 0 L 26.15625 0 L 26.15625 -14.890625 L 12.53125 -14.890625 L 12.53125 0 L 3.078125 0 L 3.078125 -36.328125 Z M 12.53125 -36.328125 "/></g></g></g></svg>